<?xml version="1.0" encoding="utf-8"?>
<!-- Generator: Adobe Illustrator 25.0.1, SVG Export Plug-In . SVG Version: 6.00 Build 0)  -->
<svg version="1.1" id="Layer_1" xmlns="http://www.w3.org/2000/svg" xmlns:xlink="http://www.w3.org/1999/xlink" x="0px" y="0px"
	 viewBox="0 0 578.87 101.44" style="enable-background:new 0 0 578.87 101.44;" xml:space="preserve">
<style type="text/css">
	.st0{fill:#004580;}
	.st1{fill:#FFFFFF;}
</style>
<rect class="st0" width="578.87" height="101.44"/>
<g>
	<path class="st1" d="M42.17,86.81c-7.14,0-13.25-2.54-18.33-7.63c-5.08-5.08-7.63-11.2-7.63-18.33c0-7.17,2.54-13.29,7.63-18.38
		c5.08-5.08,11.2-7.63,18.33-7.63c7.2,0,12.3,1.5,15.3,4.5v-3.91h10.71v50.73H57.47V82.3C54.47,85.31,49.37,86.81,42.17,86.81z
		 M42.17,45.55c-4.2,0-7.8,1.5-10.8,4.5c-2.97,2.97-4.46,6.57-4.46,10.8s1.49,7.83,4.46,10.8c2.97,2.97,6.57,4.46,10.8,4.46
		s7.84-1.49,10.84-4.46c2.97-2.97,4.46-6.57,4.46-10.8s-1.49-7.83-4.46-10.8C50.01,47.05,46.4,45.55,42.17,45.55z"/>
	<path class="st1" d="M105.3,34.84v10.71h-2.71c-2.88,0-5.35,1.03-7.4,3.08c-2.05,2.05-3.08,4.53-3.08,7.44v30.1H81.41V35.44h10.71
		v1.84c3.28-1.53,6.77-2.34,10.48-2.44H105.3z"/>
	<path class="st1" d="M131.49,86.81c-4.23-0.03-8.06-1.04-11.49-3.03c-4.2-2.48-7.15-6.66-8.87-12.54l10.25-2.89
		c0.92,3.16,2.34,5.27,4.27,6.34c1.68,0.92,3.64,1.39,5.88,1.42c0.28,0,0.58-0.02,0.92-0.05c0.34-0.03,0.67-0.08,1.01-0.14
		c0.92-0.15,1.73-0.38,2.44-0.69c1.81-0.89,2.79-2.34,2.94-4.37c0.06-0.86-0.21-1.61-0.83-2.25c-1.19-1.44-3.29-2.25-6.29-2.44
		c-7.47-0.49-12.9-2.44-16.27-5.83c-1.41-1.41-2.41-3-2.99-4.78c-0.49-1.38-0.74-2.85-0.74-4.41c0-5.08,1.99-9.17,5.97-12.27
		c3.49-2.7,7.69-4.04,12.59-4.04c5.82,0,10.69,2.07,14.61,6.2c2.14,2.33,3.84,5.12,5.1,8.36l-9.97,3.68l-1.38-2.57
		c-0.43-0.77-0.93-1.45-1.52-2.07c-1.87-1.93-4.18-2.89-6.94-2.89c-0.52,0.03-0.98,0.08-1.38,0.14c-0.92,0.12-1.82,0.35-2.71,0.69
		c-2.45,0.95-3.68,2.54-3.68,4.78c0,1.19,0.9,2.18,2.71,2.94c1.78,0.7,4.21,1.16,7.31,1.38c3.31,0.21,6.23,0.96,8.78,2.25
		c1.93,1.01,3.58,2.28,4.96,3.81c2.51,2.97,3.61,6.36,3.31,10.15c-0.37,4.9-2.45,8.73-6.25,11.49c-3.28,2.42-7.18,3.63-11.72,3.63
		H131.49z"/>
	<path class="st1" d="M183.18,86.81c-7.14,0-13.25-2.54-18.33-7.63c-5.09-5.08-7.63-11.2-7.63-18.33c0-7.17,2.54-13.29,7.63-18.38
		c5.08-5.08,11.2-7.63,18.33-7.63c7.2,0,12.3,1.5,15.3,4.5v-3.91h10.71v50.73h-10.71V82.3C195.48,85.31,190.38,86.81,183.18,86.81z
		 M183.18,45.55c-4.2,0-7.8,1.5-10.8,4.5c-2.97,2.97-4.46,6.57-4.46,10.8s1.49,7.83,4.46,10.8c2.97,2.97,6.57,4.46,10.8,4.46
		c4.23,0,7.84-1.49,10.84-4.46c2.97-2.97,4.46-6.57,4.46-10.8s-1.49-7.83-4.46-10.8C191.02,47.05,187.41,45.55,183.18,45.55z"/>
	<path class="st1" d="M264.83,86.16h-10.71v-30.1c0-2.91-1.03-5.39-3.08-7.44c-2.05-2.05-4.52-3.08-7.4-3.08
		c-2.91,0-5.39,1.03-7.44,3.08c-2.05,2.05-3.08,4.53-3.08,7.44v30.1h-10.71V35.44h10.71v2.07c3.31-1.84,6.82-2.73,10.52-2.67
		c5.82,0,10.8,2.08,14.93,6.25c4.17,4.14,6.25,9.13,6.25,14.98V86.16z"/>
	<path class="st1" d="M300.67,86.81c-7.14,0-13.25-2.54-18.33-7.63c-5.09-5.08-7.63-11.2-7.63-18.33c0-7.17,2.54-13.29,7.63-18.38
		c5.08-5.08,11.2-7.63,18.33-7.63c7.2,0,12.3,1.5,15.3,4.5v-3.91h10.71v50.73h-10.71V82.3C312.96,85.31,307.86,86.81,300.67,86.81z
		 M300.67,45.55c-4.2,0-7.8,1.5-10.8,4.5c-2.97,2.97-4.46,6.57-4.46,10.8s1.49,7.83,4.46,10.8c2.97,2.97,6.57,4.46,10.8,4.46
		c4.23,0,7.84-1.49,10.84-4.46c2.97-2.97,4.46-6.57,4.46-10.8s-1.49-7.83-4.46-10.8C308.51,47.05,304.89,45.55,300.67,45.55z"/>
	<path class="st1" d="M382.31,86.16h-10.71v-30.1c0-2.91-1.03-5.39-3.08-7.44c-2.05-2.05-4.52-3.08-7.4-3.08
		c-2.91,0-5.39,1.03-7.44,3.08c-2.05,2.05-3.08,4.53-3.08,7.44v30.1H339.9V35.44h10.71v2.07c3.31-1.84,6.82-2.73,10.52-2.67
		c5.82,0,10.8,2.08,14.93,6.25c4.17,4.14,6.25,9.13,6.25,14.98V86.16z"/>
	<path class="st1" d="M418.2,86.85c-7.17,0-13.29-2.56-18.38-7.67c-5.08-5.08-7.63-11.2-7.63-18.33c0-7.14,2.54-13.25,7.63-18.33
		c5.08-5.12,11.21-7.67,18.38-7.67c6.37-0.09,11.46,1.42,15.25,4.55l0.03-29.9h10.68v76.67h-10.71V82.3
		C430.48,85.34,425.4,86.85,418.2,86.85z M418.2,45.59c-4.23,0-7.84,1.49-10.84,4.46c-2.97,2.97-4.46,6.57-4.46,10.8
		s1.49,7.83,4.46,10.8c3,2.97,6.62,4.46,10.84,4.46c4.23,0,7.83-1.49,10.8-4.46c2.97-2.97,4.46-6.57,4.46-10.8s-1.49-7.83-4.46-10.8
		C426.02,47.08,422.43,45.59,418.2,45.59z"/>
	<path class="st1" d="M534.12,86.81c-7.14,0-13.25-2.54-18.33-7.63c-5.08-5.08-7.63-11.2-7.63-18.33c0-7.17,2.54-13.29,7.63-18.38
		c5.08-5.08,11.2-7.63,18.33-7.63c7.2,0,12.3,1.5,15.3,4.5v-3.91h10.71v50.73h-10.71V82.3C546.42,85.31,541.32,86.81,534.12,86.81z
		 M534.12,45.55c-4.2,0-7.8,1.5-10.8,4.5c-2.97,2.97-4.46,6.57-4.46,10.8s1.49,7.83,4.46,10.8c2.97,2.97,6.57,4.46,10.8,4.46
		c4.23,0,7.84-1.49,10.84-4.46c2.97-2.97,4.46-6.57,4.46-10.8s-1.49-7.83-4.46-10.8C541.96,47.05,538.35,45.55,534.12,45.55z"/>
	<g>
		<path class="st1" d="M455.88,86.16h10.71V56.02c0-2.91,1.01-5.38,3.03-7.4c2.05-2.05,4.53-3.08,7.44-3.08
			c2.91,0,5.39,1.03,7.44,3.08c2.02,2.02,3.03,4.49,3.03,7.4v30.14h10.71V56.02c0-5.82-2.07-10.81-6.2-14.98
			c-4.17-4.14-9.16-6.2-14.98-6.2c-3.65-0.06-7.14,0.84-10.48,2.71l0-6.56h-10.7V86.16z"/>
		<rect x="455.88" y="9.49" class="st1" width="10.7" height="10.7"/>
		<rect x="315.94" y="20.28" class="st1" width="139.93" height="10.71"/>
		<rect x="466.58" y="20.28" class="st1" width="93.55" height="10.71"/>
	</g>
</g>
</svg>
