<svg version="1.1" id="Layer_1" xmlns="http://www.w3.org/2000/svg" xmlns:xlink="http://www.w3.org/1999/xlink" x="0" y="0" viewBox="0 0 1200 1200" xml:space="preserve"><style>.st0{fill:#ce372f}.st10,.st2,.st4,.st5,.st6,.st7,.st8,.st9{fill:#fff;stroke:#000;stroke-width:.5;stroke-miterlimit:10}.st10,.st4,.st5,.st6,.st7,.st8,.st9{fill:none}.st10,.st5,.st6,.st7,.st8,.st9{fill:#ce372f}.st10,.st6,.st7,.st8,.st9{fill:#1e88e5}.st10,.st7,.st8,.st9{fill:#64b5f6}.st10,.st8,.st9{fill:#e0e0e0}.st10,.st9{fill:#6d4c41}.st10{fill:#fff;stroke-linecap:round;stroke-linejoin:round}.st11{fill:#212121}.st14,.st15{stroke-miterlimit:10}.st14{fill:#ce372f;stroke:#000}.st15{stroke:#231f20}.st15,.st19{fill:#fff}</style><path class="st0" d="M306.2 463.9h583.7v153.8H306.2z"/><defs><path id="SVGID_1_" d="M224 396.8v406.5c0 8.6 4.6 16.5 12 20.8l352 203.2c7.4 4.3 16.6 4.3 24 0L964 824c7.4-4.3 12-12.2 12-20.8V396.8c0-8.6-4.6-16.5-12-20.8L612 172.8c-7.4-4.3-16.6-4.3-24 0L236 376c-7.4 4.3-12 12.2-12 20.8z"/></defs><clipPath id="SVGID_2_"><use xlink:href="#SVGID_1_" overflow="visible"/></clipPath><g clip-path="url(#SVGID_2_)"><path class="st2" d="M500.9 869.7h389.4v169.1H500.9z"/><path fill="#f5f5f5" stroke="#000" stroke-width=".5" stroke-miterlimit="10" d="M510.9 879.1h366.9V992H510.9z"/><path class="st4" d="M510.9 992h164.6v7.2H510.9zM510.9 999.3h164.6v10.8H510.9zM510.9 1010.1h164.6v12.9H510.9zM510.9 1023h164.6v15.8H510.9zM707.6 992h170.1v7.2H707.6zM707.6 999.3h170.1v10.8H707.6zM707.6 1010.1h170.1v12.9H707.6zM707.6 1023h170.1v15.8H707.6z"/><path class="st2" d="M719.6 903.8h146.3v75.8H719.6z"/><path class="st5" d="M722.9 906.2h139.6v55.4H722.9z"/><path class="st4" d="M675.5 879.3h32.1v112.9h-32.1z"/><path class="st6" d="M829 993c-4.3-.1-5.3-3.2-5.6-4.3-.1-.3-.3-.5-.6-.5h-1.1c-.3 0-.5.2-.6.5-.3 4-4.7 4.3-5.6 4.3h-.2v17.5c0 .3.3.6.6.6h13c.3 0 .6-.3.6-.6v-16.9c.1-.4-.1-.6-.5-.6zM846 993c-4.3-.1-5.3-3.2-5.6-4.3-.1-.3-.3-.5-.6-.5h-1.1c-.3 0-.5.2-.6.5-.3 4-4.7 4.3-5.6 4.3h-.2v17.5c0 .3.3.6.6.6h13c.3 0 .6-.3.6-.6v-16.9c.1-.4-.2-.6-.5-.6zM862.6 993c-4.3-.1-5.3-3.2-5.6-4.3-.1-.3-.3-.5-.6-.5h-1.1c-.3 0-.5.2-.6.5-.3 4-4.7 4.3-5.6 4.3h-.2v17.5c0 .3.3.6.6.6h13c.3 0 .6-.3.6-.6v-16.9c.1-.4-.1-.6-.5-.6z"/><path class="st7" d="M837 1005.4c-4.3-.1-5.3-3.2-5.6-4.3-.1-.3-.3-.5-.6-.5h-1.1c-.3 0-.5.2-.6.5-.3 4-4.7 4.3-5.6 4.3h-.2v17.5c0 .3.3.6.6.6h13c.3 0 .6-.3.6-.6V1006c0-.3-.2-.6-.5-.6zM855.2 1005.4c-4.3-.1-5.3-3.2-5.6-4.3-.1-.3-.3-.5-.6-.5h-1c-.3 0-.5.2-.6.5-.3 4-4.7 4.3-5.6 4.3h-.2v17.5c0 .3.3.6.6.6h13c.3 0 .6-.3.6-.6V1006c0-.3-.2-.6-.6-.6z"/><path class="st2" d="M890.3 889h72.4s-.8-20.1-72.4-20.1V889z"/><g><path class="st8" d="M305.6 869.7h195.3v169.1H305.6z"/><path class="st2" d="M305.6 875.7h188.1v115.9H305.6z"/><path class="st9" d="M336.5 899.6h88.1v43.3h-88.1z"/><path class="st2" d="M365.9 943v-43.4M395.2 943v-43.4M338.1 900.9H364v31.3h-25.9z"/><path class="st2" d="M338.1 905.6H364v4.4h-25.9zM338.1 914.5H364v4.4h-25.9zM338.1 919H364v4.4h-25.9zM338.1 923.4H364v4.4h-25.9zM367.6 900.9h25.9v31.3h-25.9z"/><path class="st2" d="M367.6 905.6h25.9v4.4h-25.9zM367.6 914.5h25.9v4.4h-25.9zM367.6 919h25.9v4.4h-25.9zM367.6 923.4h25.9v4.4h-25.9zM396.9 900.9h25.9v31.3h-25.9z"/><path class="st2" d="M396.9 905.6h25.9v4.4h-25.9zM396.9 914.5h25.9v4.4h-25.9zM396.9 919h25.9v4.4h-25.9zM396.9 923.4h25.9v4.4h-25.9z"/><path class="st4" d="M305.6 899.7h19.5s6.8-1 6.8 5.3l-.3 86.6"/><path class="st9" d="M431.1 899.7h52.8v91.4h-52.8z"/><path class="st2" d="M305.6 928.9h188.1v4.7H305.6zM305.2 943h188.1v4.7H305.2zM305.6 957.6h188.1v4.7H305.6zM305.6 969.5h188.1v4.7H305.6z"/><path class="st2" d="M395.2 928.9h8V991h-8z"/><path class="st4" d="M317.3 899.6v6"/><ellipse class="st2" cx="317.3" cy="906.4" rx="6.3" ry=".8"/><path class="st10" d="M311 906.4v3.8l-3.5 1.9h7.2l-2.8-1.6M319.9 907.3v3.7l-3.5 1.9h7.1l-2.8-1.6"/><path class="st2" d="M338.1 901.2H364v4.4h-25.9zM338.1 910.1H364v4.4h-25.9z"/></g><path class="st2" d="M300.7 861.3h589.6v8.4H300.7z"/><g><path class="st8" d="M305.6 692.2h190.6v169.1H305.6z"/><path class="st2" d="M305.6 698.1h183.6V814H305.6z"/><path class="st9" d="M335.7 722.1h86v43.3h-86z"/><path class="st2" d="M364.5 765.4v-43.3M393.1 765.4v-43.3M337.3 723.3h25.2v31.3h-25.2z"/><path class="st2" d="M337.3 728.1h25.2v4.4h-25.2zM337.3 737h25.2v4.4h-25.2zM337.3 741.4h25.2v4.4h-25.2zM337.3 745.9h25.2v4.4h-25.2zM366.1 723.3h25.2v31.3h-25.2z"/><path class="st2" d="M366.1 728.1h25.2v4.4h-25.2zM366.1 737h25.2v4.4h-25.2zM366.1 741.4h25.2v4.4h-25.2zM366.1 745.9h25.2v4.4h-25.2zM394.7 723.3h25.2v31.3h-25.2z"/><path class="st2" d="M394.7 728.1h25.2v4.4h-25.2zM394.7 737h25.2v4.4h-25.2zM394.7 741.4h25.2v4.4h-25.2zM394.7 745.9h25.2v4.4h-25.2z"/><path class="st4" d="M305.6 722.2h19s6.6-1 6.6 5.3L331 814"/><path class="st9" d="M428.1 722.2h51.5v91.4h-51.5z"/><path class="st2" d="M305.6 751.4h183.6v4.7H305.6zM305.2 765.4h183.6v4.7H305.2zM305.6 780.1h183.6v4.7H305.6zM305.6 792h183.6v4.7H305.6z"/><path class="st2" d="M393.1 751.4h7.8v62.1h-7.8z"/><path class="st4" d="M317 722.1v6"/><ellipse class="st2" cx="317" cy="728.9" rx="6.1" ry=".8"/><path class="st10" d="M310.9 728.9v3.8l-3.4 1.9h6.9l-2.7-1.7M319.5 729.7v3.8l-3.4 1.9h7l-2.7-1.6"/><path class="st2" d="M337.3 723.7h25.2v4.4h-25.2zM337.3 732.6h25.2v4.4h-25.2z"/><g><path class="st8" d="M500.4 692.2H691v169.1H500.4z"/><path class="st2" d="M500.4 698.1H684V814H500.4z"/><path class="st9" d="M530.6 722.1h86v43.3h-86z"/><path class="st2" d="M559.3 765.4v-43.3M587.9 765.4v-43.3M532.2 723.3h25.2v31.3h-25.2z"/><path class="st2" d="M532.2 728.1h25.2v4.4h-25.2zM532.2 737h25.2v4.4h-25.2zM532.2 741.4h25.2v4.4h-25.2zM532.2 745.9h25.2v4.4h-25.2zM561 723.3h25.2v31.3H561z"/><path class="st2" d="M561 728.1h25.2v4.4H561zM561 737h25.2v4.4H561zM561 741.4h25.2v4.4H561zM561 745.9h25.2v4.4H561zM589.5 723.3h25.2v31.3h-25.2z"/><path class="st2" d="M589.5 728.1h25.2v4.4h-25.2zM589.5 737h25.2v4.4h-25.2zM589.5 741.4h25.2v4.4h-25.2zM589.5 745.9h25.2v4.4h-25.2z"/><path class="st9" d="M623 722.2h51.5v91.4H623z"/><path class="st2" d="M500.4 751.4H684v4.7H500.4zM500 765.4h183.6v4.7H500zM500.4 780.1H684v4.7H500.4zM500.4 792H684v4.7H500.4z"/><path class="st2" d="M587.9 751.4h7.8v62.1h-7.8zM532.2 723.7h25.2v4.4h-25.2zM532.2 732.6h25.2v4.4h-25.2z"/></g><path class="st8" d="M496.2 692.2h4.1v169.1h-4.1zM691.1 692.2h8v169.1h-8z"/><g><path class="st8" d="M699.4 692.2H890v169.1H699.4z"/><path class="st2" d="M699.4 698.1H883V814H699.4z"/><path class="st9" d="M729.5 722.1h86v43.3h-86z"/><path class="st2" d="M758.3 765.4v-43.3M786.9 765.4v-43.3M731.1 723.3h25.2v31.3h-25.2z"/><path class="st2" d="M731.1 728.1h25.2v4.4h-25.2zM731.1 737h25.2v4.4h-25.2zM731.1 741.4h25.2v4.4h-25.2zM731.1 745.9h25.2v4.4h-25.2zM759.9 723.3h25.2v31.3h-25.2z"/><path class="st2" d="M759.9 728.1h25.2v4.4h-25.2zM759.9 737h25.2v4.4h-25.2zM759.9 741.4h25.2v4.4h-25.2zM759.9 745.9h25.2v4.4h-25.2zM788.4 723.3h25.2v31.3h-25.2z"/><path class="st2" d="M788.4 728.1h25.2v4.4h-25.2zM788.4 737h25.2v4.4h-25.2zM788.4 741.4h25.2v4.4h-25.2zM788.4 745.9h25.2v4.4h-25.2z"/><path class="st4" d="M699.4 722.2h19s6.6-1 6.6 5.3l-.3 86.6"/><path class="st9" d="M821.9 722.2h51.5v91.4h-51.5z"/><path class="st2" d="M699.4 751.4H883v4.7H699.4zM699 765.4h183.6v4.7H699zM699.4 780.1H883v4.7H699.4zM699.4 792H883v4.7H699.4z"/><path class="st2" d="M786.9 751.4h7.8v62.1h-7.8z"/><path class="st4" d="M710.7 722.1v6"/><ellipse class="st2" cx="710.7" cy="728.9" rx="6.1" ry=".8"/><path class="st10" d="M704.6 728.9v3.8l-3.4 1.9h7l-2.7-1.7M713.3 729.7v3.8l-3.4 1.9h7l-2.8-1.6"/><path class="st2" d="M731.1 723.7h25.2v4.4h-25.2zM731.1 732.6h25.2v4.4h-25.2z"/></g></g><path class="st2" d="M521.1 801.4h338.2v68.3H521.1z"/><g><path class="st5" d="M306.1 653.6H890v38.6H306.1zM881.9 653.6v38.6M873.4 653.6v38.6M865.9 653.6v38.6M857.4 653.6v38.6M848.5 653.6v38.6M840.1 653.6v38.6M832.5 653.6v38.6M824 653.6v38.6M815.9 653.6v38.6M807.5 653.6v38.6M799.9 653.6v38.6M791.5 653.6v38.6M782.6 653.6v38.6M774.1 653.6v38.6M766.6 653.6v38.6M758.1 653.6v38.6M750.4 653.6v38.6M741.9 653.6v38.6M734.4 653.6v38.6M725.9 653.6v38.6M717 653.6v38.6M708.5 653.6v38.6M701 653.6v38.6M692.5 653.6v38.6M685.4 653.6v38.6M676.9 653.6v38.6M669.4 653.6v38.6M660.9 653.6v38.6M652 653.6v38.6M643.5 653.6v38.6M636 653.6v38.6M627.5 653.6v38.6M618.9 653.6v38.6M610.5 653.6v38.6M602.9 653.6v38.6M594.4 653.6v38.6M585.5 653.6v38.6M577.1 653.6v38.6M569.5 653.6v38.6M561.1 653.6v38.6M552.8 653.6v38.6M544.3 653.6v38.6M536.8 653.6v38.6M528.3 653.6v38.6M519.4 653.6v38.6M511 653.6v38.6M503.4 653.6v38.6M495 653.6v38.6M486.6 653.6v38.6M478.1 653.6v38.6M470.6 653.6v38.6M462.1 653.6v38.6M453.2 653.6v38.6M444.8 653.6v38.6M437.2 653.6v38.6M428.8 653.6v38.6M421.1 653.6v38.6M412.6 653.6v38.6M405.1 653.6v38.6M396.6 653.6v38.6M387.7 653.6v38.6M379.3 653.6v38.6M371.7 653.6v38.6M363.3 653.6v38.6M354.7 653.6v38.6M346.2 653.6v38.6M338.7 653.6v38.6M330.2 653.6v38.6M321.3 653.6v38.6M312.8 653.6v38.6"/></g><g><path class="st11" d="M614.5 822.5l-1.1 1.3 3.4 2.4v10.1h-3.1v-8.8c-.8-.6-1.4-1-2.2-1.6l-5.1 5.5v4.9h-3.1V820h3.1v7.4c2.2-2.4 4.5-5 6.7-7.4h3.9v2.6h-2.5zM633.6 823.8v8.4c0 2.5-2.4 4.1-6.6 4.1-3.1 0-6.6-.8-6.6-4.1v-4.9h5.1v2.6h-2v2.3c0 .9 1.4 1.5 3.5 1.5s3.5-.7 3.5-1.5v-8.4c0-.9-1.4-1.5-3.6-1.5s-3.5.6-3.5 1.5v1.6h-3.1v-1.6c0-2.5 2.4-4.1 6.6-4.1 2.6 0 6.7.8 6.7 4.1zM652.4 819.9V833c0 2.4-2.4 3.4-4.6 3.4-1.2 0-2.4-.3-3.1-.7-.8.5-1.8.7-3.1.7-2.2 0-4.6-.9-4.6-3.4v-13.1h3V833c0 .7 1.1.8 1.6.8.4 0 1.6-.1 1.6-.8v-10.8h3.1V833c0 .7 1 .8 1.5.8s1.6-.1 1.6-.8v-13.1h3zM654.1 814.9v2.6h-11v-4.4h3.1v1.8h7.9zM668.9 825.2v11h-3v-11c0-2-1.9-2.9-3.7-2.9-1.3 0-3 .3-3.6 1.7 1.2.3 2.5.6 3.6.9l-.2 1.9c-1.6 0-2.9 1.1-2.9 2.6v6.7H656v-6.7c0-1.2.6-2.6 1.6-3.4-.7-.2-1.6-.5-2.2-.6 0-3.7 3.3-5.7 6.8-5.7 3.4 0 6.7 1.8 6.7 5.5zM681.6 820c1.4-.5 3.2-1.3 4.5-1.8l.9 2.5-2.4.9c.6.6.9 1.3.9 2.3v12.3h-3.1v-5.7c0-.9-1.4-1.4-3.6-1.4s-3.6.6-3.6 1.4v1.7c0 1 .5 1.5 1.4 1.5h2.3v2.5h-2.3c-2.5 0-4.4-1.3-4.4-3.9v-1.7c0-2.5 2.5-4.1 6.6-4.1 1.4 0 2.6.2 3.6.5v-3c0-.9-1.4-1.5-3.6-1.5s-3.6.6-3.6 1.5v1.6h-3.1V824c0-3.3 3.9-4.1 6.6-4.1 1-.2 2-.1 2.9.1zM685.6 838v5.4h-3.1v-2.9h-1.6V838h4.7zM698 825.4v-1.6c0-.9-1.1-1.5-3-1.5-1.8 0-3 .6-3 1.5v1.1l7.8 3.9c.7.4 1.2 1.1 1.2 1.8v1.7c0 2-1.6 4.1-6 4.1s-6-2.1-6-4.1v-.6h3.1v.6c0 .9 1.1 1.5 3 1.5s3-.6 3-1.5V831l-7.8-3.9c-.7-.4-1.2-1.1-1.2-1.8v-1.5c0-2 1.6-4.1 6-4.1s6 2.1 6 4.1v1.6H698zM718 819.9v16.3h-3v-1.5c-1.3.9-3.3 1.7-5.1 1.7-3.1 0-5.4-1.4-5.4-5.4v-11.2h3.1V831c0 2 1.1 2.7 2.5 2.7 1.7 0 4.3-1.7 5-2.5v-11.4h2.9zM718 817.5h-11.5v-2.6H718v2.6zM727 833.7v2.5h-5.2v-16.3h3v13.9h2.2zM741.9 823.8v8.4c0 2-1.6 4.1-6.2 4.1s-6.2-2.1-6.2-4.1v-1.6h3v1.6c0 .9 1.2 1.5 3.2 1.5 1.9 0 3.2-.6 3.2-1.5v-8.4c0-.9-1.2-1.5-3.2-1.5s-3.2.6-3.2 1.5v1.6h-3v-1.6c0-2 1.6-4.1 6.2-4.1s6.2 2.1 6.2 4.1zM758.1 821.5c.9.9 1 1.9 1 2.3v12.3H756v-12.3c0-1.3-2.8-1.5-3.8-1.5-.9 0-3.9.2-3.9 1.5v4.4c.8-.2 1.8-.4 2.8-.4h2.5v2.7h-2.5c-1.7 0-2.8.5-2.8 1.4v4.3h-3v-12.3c0-1 .5-4.1 6.9-4.1 1.1 0 2.1.1 2.8.3l4.6-1.8 1 2.5-2.5.7zM775.1 836.2l5.9-15h-9v-2.7h13.2l-6.9 17.7h-3.2z"/><g><path class="st11" d="M622.3 850.1v1.5c0 2.2-2.2 3-4 3.1-1.4 0-3-.3-4.3-1l.5-1.1c1 .5 2.5.7 3.8.7.9 0 2.6-.5 2.6-1.6v-1.6c0-.1 0-.2-.1-.2l-5.8-2.8c-.5-.3-.9-.8-.9-1.4v-1.2c0-1.7 1.8-3 3.9-3 1.2 0 3.1.3 4.3 1l-.5 1.1c-1.1-.5-2.5-.8-3.8-.7-1 0-2.6.4-2.6 1.8v1c0 .1 0 .2.1.2l5.8 2.8c.7.2 1 .8 1 1.4zM626.7 845h2.4v1.3h-2.4v6.5c0 .3.2.5.5.5h1.9v1.3h-2c-1 0-1.8-.8-1.8-1.8v-6.5h-1.7V845h1.7v-2.5h1.3v2.5zM638.9 845v9.6h-1.3V853l-2.1 1.6h-1.8c-1.4 0-2.6-.9-2.6-2.4V845h1.3v7.1c0 .7.5 1.1 1.3 1.1h1.3l2.5-1.8V845h1.4zM644 844.9c1.2-.1 2.3.1 3.3.5v-3.8h1.3v13h-1.3v-1.1l-2.2 1.1h-1.5c-1.5-.1-2.4-1-2.6-2.5-.2-1.6-.1-2.8 0-4.4.1-1.7 1.4-2.8 3-2.8zm-.4 8.3h1.2l2.5-1.2v-5.2c-1.1-.3-2.1-.6-3.2-.5-1.1 0-1.7.7-1.8 1.5-.1 1.5-.1 2.6 0 4.1.1 1.1.7 1.3 1.3 1.3zM653.2 844.9h2.2c1.5 0 2.6 1 2.6 2.4v.9c0 1.2-1 2.6-2.8 2.6h-3.3v1.1c0 1.3 1.5 1.3 2.5 1.3 1.3 0 1.9-.2 2.9-.5l.5 1.2c-.8.4-2.5.7-3.4.7-1.8 0-3.8-.6-3.8-2.5v-4.8c0-1.3 1-2.4 2.6-2.4zm-1.3 4.6h3.3c.9 0 1.4-.7 1.4-1.3v-.9c0-.7-.4-1.1-1.2-1.1h-2.2c-.8 0-1.2.4-1.2 1.1v2.2zM667.8 847.4v7.1h-1.3v-7.1c0-.7-.5-1.1-1.3-1.1h-1.3l-2.6 2.2v6H660V845h1.3v1.9l2.1-1.9h1.8c1.3 0 2.6.9 2.6 2.4zM672.2 845h2.4v1.3h-2.4v6.5c0 .3.2.5.5.5h1.9v1.3h-2c-1 0-1.8-.8-1.8-1.8v-6.5h-1.7V845h1.7v-2.5h1.3v2.5zM691.9 848.1c0 3.5-1.2 6.6-5.3 6.6-1.2 0-2.7 0-4-.3v-12.5c1.4-.2 2.5-.3 4-.3 4.1-.1 5.3 3.3 5.3 6.5zm-5.5-5.3c-.9 0-1.7.1-2.4.1V853c.4 0 1.3.2 2.4.2 3.5 0 4.2-2.7 4.2-5.1 0-2.7-.9-5.3-4.2-5.3zM697.7 844.9c3.1 0 4.1 2.2 4.1 4.9 0 2.6-1 4.9-4.1 4.9-3.1 0-4.1-2.2-4.1-4.9-.1-2.6 1-4.9 4.1-4.9zm-2.8 4.9c0 1.3.2 3.6 2.8 3.6 2.6 0 2.8-2.3 2.8-3.6 0-1.3-.2-3.6-2.8-3.6s-2.8 2.2-2.8 3.6zM708.1 845.1l-.1 1.2c-.2 0-.9-.1-1.8 0-1 .1-1.2 1-1.2 1.3v7h-1.3v-7.1c0-1.4 1.1-2.5 2.5-2.5.5-.1 1.2 0 1.9.1zM721.4 847.4v7.1h-1.3v-7.1c0-.7-.5-1.1-1.3-1.1h-.3l-2.4 2.2v6h-1.3v-7.1c0-.7-.5-1.1-1.3-1.1h-.3l-2.4 2.2v6h-1.3V845h1.3v1.9l1.9-1.9h.9c1.2 0 2.3.7 2.6 1.9l1.9-1.9h.9c1.2 0 2.4.9 2.4 2.4zM723.7 841.6h1.3v2h-1.3v-2zm0 3.4h1.3v9.6h-1.3V845zM729.7 845h2.4v1.3h-2.4v6.5c0 .3.2.5.5.5h1.9v1.3h-2c-1 0-1.8-.8-1.8-1.8v-6.5h-1.7V845h1.7v-2.5h1.3v2.5zM738 844.9c3.1 0 4.1 2.2 4.1 4.9 0 2.6-1 4.9-4.1 4.9-3.1 0-4.1-2.2-4.1-4.9 0-2.6 1-4.9 4.1-4.9zm-2.8 4.9c0 1.3.2 3.6 2.8 3.6 2.6 0 2.8-2.3 2.8-3.6 0-1.3-.2-3.6-2.8-3.6s-2.8 2.2-2.8 3.6zM748.4 845.1l-.1 1.2c-.2 0-.9-.1-1.8 0-1 .1-1.2 1-1.2 1.3v7H744v-7.1c0-1.4 1.1-2.5 2.5-2.5.5-.1 1.3 0 1.9.1zM756.5 845h1.4l-2.6 9.6-1 3.7H751V857h2.2l.6-2.4h-2l-2.6-9.6h1.4l2.2 8.2h1.4l2.3-8.2zM767.4 854.5l3.7-9.4h-5.7v-1.3h7.7l-4.2 10.8h-1.5z"/></g></g><path class="st2" d="M522.6 869.7s-21.7 9.9-21.7 19.3h389.4s-15-19.3-33.4-19.3H522.6z"/><path d="M303 692.2s-37.2 9.9-37.2 19.3h667.5s-25.8-19.3-57.3-19.3H303z" fill="#9e2432" stroke="#000" stroke-width=".5" stroke-miterlimit="10"/><path fill="#c49a6c" stroke="#000" stroke-miterlimit="10" d="M521.6 900h118.8v91.4H521.6z"/><path class="st14" d="M530.8 915.5H581v75.2h-50.2zM581.3 915.5h50.2v75.2h-50.2z"/><path class="st15" d="M510.9 954.6h53.9v4.9h-53.9zM517.6 959.6h1.6v32.5h-1.6zM552.6 959.5h1.6V992h-1.6z"/><path fill="#231f20" d="M647.5 910.5h16.3v18.3h-16.3z"/><path fill="#2e3192" d="M648.9 912.3h13.3v14.4h-13.3z"/><path fill="#00a651" d="M651.5 910.8h8.1v.7h-8.1z"/></g><path class="st0" d="M600 174.5c3.3 0 6.6.9 9.5 2.5l352 203.2c5.9 3.4 9.5 9.7 9.5 16.5v406.5c0 6.8-3.6 13.1-9.5 16.5l-352 203.2c-2.9 1.7-6.2 2.5-9.5 2.5s-6.6-.9-9.5-2.5l-352-203.2c-5.9-3.4-9.5-9.7-9.5-16.5V396.8c0-6.8 3.6-13.1 9.5-16.5l352-203.2c2.9-1.7 6.2-2.6 9.5-2.6m0-5c-4.1 0-8.3 1.1-12 3.2L236 376c-7.4 4.3-12 12.2-12 20.8v406.5c0 8.6 4.6 16.5 12 20.8l352 203.2c3.7 2.1 7.9 3.2 12 3.2s8.3-1.1 12-3.2L964 824c7.4-4.3 12-12.2 12-20.8V396.8c0-8.6-4.6-16.5-12-20.8L612 172.8c-3.7-2.2-7.9-3.3-12-3.3z"/><g><path class="st0" d="M959.8 373.5L616.2 175.2c-10-5.8-22.4-5.8-32.5 0L240.2 373.5c-10 5.8-16.2 16.5-16.2 28.1v67.6c0-11.6 6.2-22.3 16.2-28.1l343.5-198.3c10-5.8 22.4-5.8 32.5 0l343.5 198.3c10 5.8 16.2 16.5 16.2 28.1v-67.6c.1-11.5-6.1-22.3-16.1-28.1z"/></g><g><path class="st19" d="M375.4 546.7v8.5h-42.1V545c9.9-5.4 17.3-11.1 22.2-17.1 4.9-5.9 7.4-12.1 7.4-18.4 0-7.7-3.8-11.6-11.3-11.6-3.1 0-5.4.8-7.1 2.3-1.7 1.5-2.5 3.7-2.5 6.5h-9.8c0-3.6.8-6.7 2.3-9.3 1.6-2.6 3.8-4.5 6.8-5.9 3-1.4 6.6-2 10.8-2 6.8 0 11.9 1.6 15.3 4.9 3.4 3.2 5.1 8.1 5.1 14.7s-2.1 12.9-6.2 18.9c-4.2 6-10.5 11.8-18.9 17.3v1.4h28zM431.2 532.6v8H425v14.5h-9.2v-14.5h-32.5l.1-.1 9.1-46.4h9.4l-7.6 38.6h21.5v-42.2h9.2v42.2h6.2zM481.3 525.4c3.5 2.7 5.2 6.6 5.2 11.5 0 3.8-.8 7.1-2.3 9.8-1.5 2.7-3.8 4.8-6.7 6.2-2.9 1.4-6.5 2.1-10.6 2.1h-24.8v-64.7h19.2c6.6 0 11.6 1.4 15.2 4.3 3.6 2.9 5.4 6.9 5.4 12.1 0 3.9-1.3 7.1-4 9.4-2.7 2.4-6.5 3.8-11.5 4.3v.5c6.4.3 11.4 1.7 14.9 4.5zm-30.1-26.3v17.5h8.5c4 0 7.1-.8 9.3-2.3 2.2-1.5 3.3-3.7 3.3-6.6 0-2.8-1.2-4.9-3.5-6.4s-5.6-2.3-9.8-2.3h-7.8zm22.4 44.6c2.2-1.8 3.3-4.4 3.3-7.7 0-3.4-1.2-6-3.5-7.9-2.3-1.9-5.6-2.8-9.8-2.8h-12.4v21.2h13c4.1 0 7.2-.9 9.4-2.8zM542.3 547.4v7.7l-15.5.5-.5-10.7h-1c-.3 3.6-1.9 6.4-4.6 8.3-2.8 1.9-6.4 2.8-11 2.8-5 0-8.9-1.2-11.7-3.6-2.8-2.4-4.1-5.9-4.1-10.3 0-5.1 1.9-9 5.6-11.8 3.7-2.7 9-4.1 15.8-4.1 3.7 0 6.9.4 9.6 1.1v-2.6c0-3.2-1.1-5.5-3.3-7-2.2-1.5-5.6-2.4-10.1-2.5l-11.6-.3.9-8.6 9.8.1c15.7.2 23.6 6.8 23.6 19.7v20.1l8.1 1.2zm-23.7-.6c2.1-1 3.6-2.3 4.6-3.9 1-1.6 1.6-3.3 1.6-5.1v-2.9c-1.5-.4-3-.6-4.5-.8-1.5-.1-3.4-.2-5.7-.2-3.8 0-6.7.6-8.7 1.8-2 1.2-3 3-3 5.4 0 2.3.7 4.1 2.1 5.3 1.4 1.2 3.5 1.8 6.2 1.8 2.9.1 5.4-.4 7.4-1.4zM592.5 555c-4.3.7-8.5 1.1-12.7 1.1-4.9 0-8.9-.7-11.9-2s-5.3-3.4-6.7-6.2c-1.4-2.8-2.1-6.4-2.1-10.9v-22.1H547v-8h12v-14.6h9.7v14.6h22v8h-22v21.6c0 3.9.9 6.6 2.8 8.4 1.9 1.7 5 2.6 9.2 2.6 1.4 0 2.9-.1 4.5-.2 1.6-.2 3.7-.4 6.2-.7l1.1 8.4zM636.2 516.4c-2.1-1.2-4.5-1.8-7-1.8-4.5 0-7.9 1.4-10.4 4.1-2.5 2.8-3.7 6.7-3.7 11.7 0 5.5 1.4 9.7 4.1 12.6 2.7 2.9 6.7 4.4 11.8 4.4 4.6 0 9.3-.4 14.2-1.2l1.1 8.5c-4.4.9-9.9 1.4-16.4 1.4-5.3 0-9.8-1-13.5-2.9-3.7-1.9-6.5-4.8-8.5-8.5-1.9-3.8-2.9-8.3-2.9-13.7 0-5.3.9-9.8 2.8-13.5 1.9-3.7 4.7-6.6 8.4-8.5 3.7-2 8.1-2.9 13.3-2.9 4.7 0 8.7.9 12.1 2.6 3.4 1.7 5.7 4.2 7.2 7.4l-7.4 5.6c-1.3-2.4-3.1-4.1-5.2-5.3zM696.4 510.6c2.8 3.1 4.2 7.5 4.2 13.1v31.4H691v-31.4c0-3-.8-5.4-2.3-7.1-1.5-1.7-3.6-2.5-6.4-2.5-7.6 0-11.4 4.6-11.4 13.9v27.2h-9.7v-68.4h9.7v28.8h.9c.3-3.3 1.5-5.7 3.6-7.3 2.1-1.6 5.2-2.4 9.2-2.4 5.1 0 9 1.6 11.8 4.7zM747.6 480v120h124.8V480H747.6zm57.9 36.7h-35.2v19.4h26.6v8.7h-26.6v19.5h35.2v8.7h-44.7v-65h44.7v8.7zm49 52.7c-4 2.9-10 4.4-18.1 4.4-7.7 0-14.4-1.2-20.1-3.6l1.2-9.2c7 2.9 13.6 4.4 19.6 4.4 4.4 0 7.7-.7 9.9-2.2 2.2-1.5 3.3-3.8 3.3-6.8 0-3.9-2.1-6.7-6.2-8.5l-11.7-5.1c-4.8-2.1-8.3-4.5-10.7-7.4-2.4-2.9-3.6-6.3-3.6-10.4 0-3.8.9-7 2.6-9.6 1.7-2.7 4.2-4.7 7.5-6.1 3.3-1.4 7.2-2.1 11.8-2.1 4.7 0 8.7.9 12.2 2.6 3.4 1.8 6 4.2 7.5 7.4l-8 5.8c-1.3-2.3-3-4.2-5.1-5.5-2-1.3-4.3-1.9-6.6-1.9-3.7 0-6.6.8-8.7 2.3-2 1.5-3 3.8-3 6.7 0 2 .6 3.7 1.7 5.1 1.1 1.3 2.9 2.5 5.3 3.6l9.9 4.5c5.2 2.4 9.1 5 11.6 7.9 2.5 2.9 3.7 6.4 3.7 10.7 0 5.7-2 10.1-6 13zM348.9 592.8c-1.5.2-2.9.4-4.3.4-1.7 0-3-.2-4.1-.7-1-.5-1.8-1.2-2.3-2.1-.5-1-.7-2.2-.7-3.7v-7.5h-4.1v-2.7h4.1v-5h3.3v5h7.5v2.7h-7.5v7.4c0 1.3.3 2.3 1 2.8.6.6 1.7.9 3.1.9.5 0 1 0 1.5-.1s1.2-.1 2.1-.2l.4 2.8zM365.6 577.7c1 1.1 1.4 2.5 1.4 4.5v10.7h-3.3v-10.7c0-1-.3-1.8-.8-2.4s-1.2-.9-2.2-.9c-2.6 0-3.9 1.6-3.9 4.7v9.2h-3.3v-23.3h3.3v9.8h.3c.1-1.1.5-1.9 1.2-2.5.7-.5 1.8-.8 3.1-.8 1.9.1 3.3.6 4.2 1.7zM381.7 590.2h5.1v2.7h-14.6v-2.7h6.3v-11h-5.3v-2.7h8.6v13.7zm-3-16.7c-.4-.2-.6-.5-.8-.8-.2-.4-.3-.7-.3-1.1s.1-.8.3-1.1c.2-.4.5-.6.8-.8.4-.2.7-.3 1.1-.3.4 0 .8.1 1.1.3.4.2.6.5.8.8.2.4.3.7.3 1.1s-.1.8-.3 1.1c-.2.4-.5.6-.8.8-.4.2-.7.3-1.1.3-.3 0-.7-.1-1.1-.3zM393.1 593.1c-.9-.1-1.7-.2-2.4-.4l.4-3c2.1.3 3.9.5 5.2.5 1.7 0 2.9-.2 3.6-.5.8-.3 1.1-.8 1.1-1.6 0-.5-.1-.8-.4-1.1-.3-.2-.7-.4-1.2-.6l-3.8-1c-1.1-.3-1.9-.6-2.5-.9-.6-.4-1.1-.8-1.4-1.3-.3-.5-.5-1.2-.5-2 0-1.2.3-2.2.9-2.9.6-.7 1.5-1.3 2.7-1.7 1.2-.4 2.8-.5 4.8-.5 1.5 0 3 .1 4.3.3l-.3 2.9c-1.6-.1-2.9-.2-4.1-.2-1.7 0-3 .2-3.8.5-.8.3-1.2.8-1.2 1.5 0 .5.1.8.4 1 .3.2.7.4 1.4.6l3 .7c1.2.3 2.1.6 2.9 1 .7.4 1.3.9 1.6 1.5.4.6.5 1.3.5 2.2 0 1.2-.3 2.2-.9 2.9-.6.7-1.5 1.3-2.6 1.6-1.2.4-2.7.5-4.7.5-1 .1-2.1 0-3 0zM415.1 592.9c-.4-.2-.6-.5-.8-.8-.2-.4-.3-.7-.3-1.1 0-.4.1-.8.3-1.1.2-.4.5-.6.8-.8.4-.2.7-.3 1.1-.3.4 0 .8.1 1.1.3.4.2.6.5.8.8.2.4.3.7.3 1.1 0 .4-.1.8-.3 1.1-.2.4-.5.6-.8.8-.4.2-.7.3-1.1.3-.4 0-.8-.1-1.1-.3zM431 592.2c-1.1-.7-1.9-1.6-2.5-2.9-.6-1.3-.8-2.8-.8-4.6 0-1.8.3-3.3.8-4.6.6-1.3 1.4-2.3 2.5-2.9 1.1-.7 2.4-1 3.9-1s2.8.3 3.9 1 1.9 1.6 2.5 2.9c.6 1.3.8 2.8.8 4.6 0 1.8-.3 3.3-.8 4.6-.6 1.3-1.4 2.3-2.5 2.9-1.1.7-2.4 1-3.9 1-1.6 0-2.9-.4-3.9-1zm6.7-3.4c.7-1 1-2.3 1-4.1s-.3-3.2-1-4.1c-.7-1-1.6-1.5-2.8-1.5-1.2 0-2.1.5-2.8 1.5-.7 1-1 2.3-1 4.1s.3 3.2 1 4.1c.7 1 1.6 1.5 2.8 1.5 1.2-.1 2.1-.6 2.8-1.5zM458.3 577.1c1 .7 1.7 1.7 2.3 3 .5 1.3.8 2.9.8 4.7 0 1.8-.3 3.3-.8 4.6-.5 1.3-1.3 2.2-2.2 2.8-1 .6-2.2 1-3.5 1-1.3 0-2.3-.2-3.1-.7-.8-.5-1.2-1.2-1.3-2.1h-.3v9.7h-3.3v-23.6h3l.3 3h.4c.1-1.1.6-1.9 1.3-2.5.7-.5 1.7-.8 3-.8 1.2-.1 2.4.2 3.4.9zm-1.2 11.9c.6-.9 1-2.3 1-4.2 0-1.9-.3-3.3-1-4.4-.7-1-1.6-1.5-2.8-1.5-2.8 0-4.2 1.6-4.2 4.7v4c0 1.9 1.4 2.8 4.2 2.8 1.2 0 2.1-.5 2.8-1.4zM479.2 592.8c-1.5.2-2.9.4-4.3.4-1.7 0-3-.2-4.1-.7-1-.5-1.8-1.2-2.3-2.1-.5-1-.7-2.2-.7-3.7v-7.5h-4.1v-2.7h4.1v-5h3.3v5h7.5v2.7h-7.5v7.4c0 1.3.3 2.3 1 2.8.6.6 1.7.9 3.1.9.5 0 1 0 1.5-.1s1.2-.1 2.1-.2l.4 2.8zM493.5 590.2h5.1v2.7H484v-2.7h6.3v-11H485v-2.7h8.6v13.7zm-3-16.7c-.4-.2-.6-.5-.8-.8-.2-.4-.3-.7-.3-1.1s.1-.8.3-1.1c.2-.4.5-.6.8-.8.4-.2.7-.3 1.1-.3.4 0 .8.1 1.1.3.4.2.6.5.8.8.2.4.3.7.3 1.1s-.1.8-.3 1.1c-.2.4-.5.6-.8.8-.4.2-.7.3-1.1.3-.4 0-.8-.1-1.1-.3zM516.1 577c.5.6.8 1.6.8 3v12.9h-3.3v-12.6c0-.6-.1-1-.3-1.3-.2-.3-.5-.4-1-.4-1.1 0-1.6.7-1.6 2.2v12H508V580c0-.9-.4-1.4-1.3-1.4-1.1 0-1.6.7-1.6 2.2v12h-3.3v-16.5h2.9l.2 2h.2c.1-.8.3-1.4.8-1.8.5-.4 1.1-.6 2-.6.7 0 1.3.2 1.7.6.5.4.8 1 .9 1.8h.3c.1-.7.3-1.2.8-1.7s1.1-.7 2-.7c1.2.2 2 .5 2.5 1.1zM530.7 590.2h5.1v2.7h-14.6v-2.7h6.3v-11h-5.3v-2.7h8.6v13.7zm-3-16.7c-.4-.2-.6-.5-.8-.8-.2-.4-.3-.7-.3-1.1s.1-.8.3-1.1c.2-.4.5-.6.8-.8.4-.2.7-.3 1.1-.3.4 0 .8.1 1.1.3.4.2.6.5.8.8.2.4.3.7.3 1.1s-.1.8-.3 1.1c-.2.4-.5.6-.8.8-.4.2-.7.3-1.1.3-.3 0-.7-.1-1.1-.3zM543.7 590.1h9.6v2.7h-13.6v-2.7l9.6-11h-9.6v-2.7H553v2.7l-9.3 11zM572.3 586.1h-11.1c.3 1.4.9 2.4 2 3.1 1 .7 2.3 1.1 4 1.1 1.3 0 2.6-.1 4-.4l.4 2.9c-1.5.3-3.1.4-4.8.4-1.9 0-3.5-.3-4.8-1-1.3-.7-2.3-1.6-3-2.9-.7-1.3-1-2.8-1-4.7 0-1.8.3-3.3.9-4.6.6-1.3 1.4-2.2 2.5-2.9 1.1-.7 2.4-1 4-1 2.2 0 4 .7 5.2 2 1.2 1.4 1.8 3.3 1.8 5.9 0 .7 0 1.4-.1 2.1zm-2.9-2.5c0-1.5-.3-2.6-1-3.4-.7-.8-1.7-1.2-2.9-1.2-1.3 0-2.3.4-3 1.2-.8.8-1.2 1.9-1.3 3.4h8.2zM583.5 594.3c-1.6-1.1-2.8-2.7-3.6-4.9-.8-2.1-1.2-4.7-1.2-7.7s.4-5.5 1.2-7.6c.8-2.1 2-3.7 3.6-4.8 1.6-1.1 3.5-1.6 5.7-1.6h.7l-.3 2.8h-.1c-1.6 0-3 .4-4.2 1.3-1.1.9-2 2.2-2.6 3.8-.6 1.7-.9 3.7-.9 6.1 0 2.4.3 4.5.9 6.2.6 1.7 1.5 3 2.6 3.9 1.1.9 2.5 1.3 4.2 1.3h.1l.3 2.8h-.7c-2.2.1-4.1-.5-5.7-1.6zM596.7 593.2c1.6 0 3-.4 4.2-1.3 1.1-.9 2-2.2 2.6-3.9.6-1.7.9-3.8.9-6.2 0-2.4-.3-4.4-.9-6.1-.6-1.7-1.5-3-2.6-3.8-1.1-.9-2.5-1.3-4.2-1.3h-.1l-.3-2.8h.7c2.2 0 4.1.5 5.7 1.6 1.6 1.1 2.8 2.7 3.6 4.8.8 2.1 1.2 4.6 1.2 7.6s-.4 5.6-1.2 7.7c-.8 2.1-2 3.7-3.6 4.9-1.6 1.1-3.5 1.7-5.7 1.7h-.7l.3-2.8h.1z"/></g></svg>