<svg id="Layer_1" data-name="Layer 1" xmlns="http://www.w3.org/2000/svg" viewBox="0 0 485 135"><defs><style>.cls-1{fill:#fff}</style></defs><path d="M63.53 75.08v7.73H25.11V73.5Q38.63 66 45.38 57.92t6.76-16.78q0-10.56-10.31-10.56a9.18 9.18 0 00-6.47 2.1 7.74 7.74 0 00-2.27 6h-8.9a16.08 16.08 0 012.15-8.49 13.57 13.57 0 016.23-5.38 23.67 23.67 0 019.84-1.85q9.31 0 14 4.43T61 40.73A29.94 29.94 0 0155.34 58q-5.7 8.27-17.26 15.83v1.25zM114.43 62.27v7.32h-5.57v13.22h-8.4V69.59H70.85l.13-.13 8.27-42.37h8.57l-6.95 35.18h19.59V23.76h8.4v38.51zM160.16 55.66q4.76 3.73 4.76 10.52a18.1 18.1 0 01-2.1 9 13.78 13.78 0 01-6.11 5.7 22 22 0 01-9.67 2h-22.62v-59H142q9 0 13.89 3.91t4.91 11.06a10.93 10.93 0 01-3.66 8.61q-3.66 3.24-10.48 3.95v.5q8.73 0 13.5 3.75zm-27.43-24v16h7.74q5.49 0 8.52-2.12a6.87 6.87 0 003-6 6.59 6.59 0 00-3.16-5.84c-2.11-1.37-5.1-2.06-9-2.06zm20.42 40.73a8.64 8.64 0 003-7 8.7 8.7 0 00-3.15-7.26c-2.12-1.71-5.1-2.56-9-2.56h-11.27v19.34h11.9c3.65 0 6.5-.84 8.52-2.52zM215.82 75.74v7.07l-14.14.42-.41-9.73h-.88a9.71 9.71 0 01-4.22 7.56q-3.76 2.58-10 2.58-6.9 0-10.69-3.3t-3.78-9.42q0-7 5.09-10.73t14.45-3.74a32.36 32.36 0 018.73 1v-2.34a7.25 7.25 0 00-3.05-6.42c-2-1.4-5.12-2.16-9.26-2.27l-10.56-.29.83-7.82 8.9.13q21.54.29 21.54 18v18.39zm-21.56-.54a10.28 10.28 0 004.24-3.58 8.25 8.25 0 001.43-4.62v-2.65a23 23 0 00-4.13-.69c-1.38-.1-3.1-.14-5.18-.14q-5.24 0-7.94 1.66a5.39 5.39 0 00-2.71 4.9 6 6 0 001.92 4.85 8.43 8.43 0 005.65 1.64 15.09 15.09 0 006.72-1.37zM261.65 82.64a68.4 68.4 0 01-11.56 1 27.34 27.34 0 01-10.9-1.83 12.06 12.06 0 01-6.11-5.65 21.88 21.88 0 01-2-10V46.05h-11.02v-7.32h11.06V25.42h8.82v13.31h20v7.32h-20v19.71c0 3.52.86 6.07 2.58 7.63s4.52 2.35 8.4 2.35c1.27 0 2.64-.07 4.09-.21s3.34-.34 5.64-.62zM301.53 47.46a12.58 12.58 0 00-6.36-1.66q-6.12 0-9.51 3.78t-3.39 10.69q0 7.53 3.77 11.5t10.79 4a81.9 81.9 0 0013-1.08l1 7.73a74.87 74.87 0 01-15 1.25A26.28 26.28 0 01283.52 81a17.82 17.82 0 01-7.73-7.8 26.81 26.81 0 01-2.67-12.49 26.93 26.93 0 012.6-12.31 17.81 17.81 0 017.63-7.8 25.53 25.53 0 0112.15-2.7 23.74 23.74 0 0111 2.39 14 14 0 016.55 6.76l-6.78 5.11a13.43 13.43 0 00-4.74-4.7zM356.46 42.14q3.82 4.24 3.83 12v28.67h-8.82V54.12a9.23 9.23 0 00-2.08-6.45 7.48 7.48 0 00-5.82-2.29q-10.4 0-10.4 12.65v24.78h-8.81V20.43h8.81v26.28h.83a8.82 8.82 0 013.25-6.63q2.87-2.17 8.4-2.18 6.99 0 10.81 4.24zM391 14h78v78h-78z"/><path class="cls-1" d="M427.2 37.82h-22v12.61h16.66v5.65h-16.67v12.67h22v5.65h-28V32.17h28zM459.29 56.56a10.51 10.51 0 012.33 7q0 5.74-3.75 8.61T446.57 75A31.3 31.3 0 01434 72.68l.77-6a31.15 31.15 0 0012.26 2.86q4.13 0 6.17-1.46a5.07 5.07 0 002-4.43c0-2.52-1.28-4.37-3.86-5.54l-7.32-3.33a17.66 17.66 0 01-6.64-4.78 10.5 10.5 0 01-2.23-6.78 11.7 11.7 0 011.6-6.26 10.16 10.16 0 014.67-4 18.07 18.07 0 017.38-1.37 16 16 0 017.6 1.71 10.51 10.51 0 014.71 4.8l-5 3.78a9.8 9.8 0 00-3.11-3.57 7.35 7.35 0 00-4.17-1.31 8.6 8.6 0 00-5.41 1.49 5.18 5.18 0 00-1.91 4.34 5.09 5.09 0 001.06 3.31 9.18 9.18 0 003.28 2.35l6.15 2.95a21.06 21.06 0 017.29 5.12z"/><g><path d="M39.36 117.17a24.08 24.08 0 01-3.93.34 9.21 9.21 0 01-3.71-.63 4 4 0 01-2.08-1.88 7.4 7.4 0 01-.67-3.4v-6.85H25.2v-2.5H29v-4.57h3v4.53h6.8v2.5H32v6.71a3.36 3.36 0 00.88 2.6 4.21 4.21 0 002.86.8c.43 0 .9 0 1.39-.07s1.14-.12 1.92-.22zM54.66 103.37a6 6 0 011.3 4.08v9.77H53v-9.77a3.15 3.15 0 00-.71-2.19 2.53 2.53 0 00-2-.78q-3.54 0-3.54 4.3v8.44h-3V96h3v9H47a3 3 0 011.1-2.26 4.73 4.73 0 012.86-.74 4.73 4.73 0 013.7 1.37zM69.33 114.76h4.61v2.46H60.6v-2.46h5.72v-10.05h-4.87v-2.5h7.88zm-2.72-15.21a2.16 2.16 0 01-.77-.76 2.11 2.11 0 010-2.1 2.16 2.16 0 01.77-.76 2 2 0 012.09 0 2.16 2.16 0 01.77.76 2.11 2.11 0 010 2.1 2.16 2.16 0 01-.77.76 2.09 2.09 0 01-2.09 0zM79.73 117.41a15.86 15.86 0 01-2.19-.33l.34-2.72a31 31 0 004.79.46 8.77 8.77 0 003.29-.45A1.49 1.49 0 0087 113a1.31 1.31 0 00-.35-1 2.44 2.44 0 00-1.12-.54l-3.46-.88a10.19 10.19 0 01-2.31-.85 3.38 3.38 0 01-1.29-1.22 3.78 3.78 0 01-.42-1.87 4.25 4.25 0 01.8-2.68 4.65 4.65 0 012.49-1.51 16.62 16.62 0 014.41-.48 28.22 28.22 0 014 .28l-.31 2.61c-1.43-.13-2.68-.2-3.74-.2a9.8 9.8 0 00-3.44.43 1.48 1.48 0 00-1.07 1.41 1.18 1.18 0 00.37.94 3.38 3.38 0 001.25.53l2.77.68a11.23 11.23 0 012.61.94 3.78 3.78 0 011.47 1.34 3.87 3.87 0 01.48 2 4.19 4.19 0 01-.78 2.64 4.54 4.54 0 01-2.41 1.5 15.49 15.49 0 01-4.25.48c-1.19-.04-2.17-.08-2.97-.14zM99.77 117.22a2 2 0 01-.76-.76 2 2 0 010-2.1 2.05 2.05 0 01.76-.76 2.11 2.11 0 012.1 0 2.13 2.13 0 01.76.76 2.11 2.11 0 010 2.1 2.05 2.05 0 01-.76.76 2 2 0 01-2.1 0zM114.26 116.59a5.81 5.81 0 01-2.25-2.66 11.89 11.89 0 010-8.42 5.83 5.83 0 012.25-2.67 7.38 7.38 0 017.1 0 5.83 5.83 0 012.25 2.67 11.89 11.89 0 010 8.42 5.81 5.81 0 01-2.25 2.66 7.31 7.31 0 01-7.1 0zm6.11-3.1a8.35 8.35 0 000-7.54 3.13 3.13 0 00-5.12 0 8.43 8.43 0 000 7.54 3.13 3.13 0 005.12 0zM139.19 102.86a5.72 5.72 0 012.05 2.71 11.69 11.69 0 01.7 4.29 10.93 10.93 0 01-.7 4.16 5.5 5.5 0 01-2 2.6 5.73 5.73 0 01-3.24.89 5.15 5.15 0 01-2.79-.67 2.5 2.5 0 01-1.2-1.94h-.28v8.84h-3v-21.53h2.71l.25 2.72h.31a3.23 3.23 0 011.18-2.26 4.61 4.61 0 012.79-.74 5.62 5.62 0 013.22.93zm-1.1 10.81a6.83 6.83 0 00.88-3.81 7.38 7.38 0 00-.9-4 2.87 2.87 0 00-2.56-1.4q-3.82 0-3.82 4.3v3.63q0 2.55 3.79 2.55a3 3 0 002.61-1.27zM158.31 117.17a24.11 24.11 0 01-3.94.34 9.24 9.24 0 01-3.71-.63 4.07 4.07 0 01-2.08-1.92 7.54 7.54 0 01-.66-3.4v-6.85h-3.77v-2.5h3.77v-4.53h3v4.53h6.82v2.5h-6.82v6.71a3.4 3.4 0 00.87 2.6 4.22 4.22 0 002.87.8c.43 0 .89 0 1.39-.07s1.14-.12 1.92-.22zM171.28 114.76h4.62v2.46h-13.34v-2.46h5.72v-10.05h-4.87v-2.5h7.87zm-2.72-15.21a2.05 2.05 0 01-.76-.76 2 2 0 010-2.1 2.05 2.05 0 01.76-.76 2 2 0 012.1 0 2.13 2.13 0 01.76.76 2.11 2.11 0 010 2.1 2.13 2.13 0 01-.76.76 2.11 2.11 0 01-2.1 0zM192 102.77a4.14 4.14 0 01.71 2.7v11.75h-3v-11.47a2 2 0 00-.29-1.17 1 1 0 00-.87-.38c-1 0-1.48.68-1.48 2v11h-2.57v-11.73c0-.85-.39-1.27-1.18-1.27-1 0-1.45.68-1.45 2v11h-3v-15h2.66l.2 1.87h.27a2.24 2.24 0 01.71-1.62 2.84 2.84 0 011.86-.53 2.3 2.3 0 011.59.55 2.76 2.76 0 01.83 1.6h.25a2.26 2.26 0 01.72-1.53 2.54 2.54 0 011.8-.62 2.8 2.8 0 012.24.85zM205.26 114.76h4.62v2.46h-13.34v-2.46h5.72v-10.05h-4.87v-2.5h7.87zm-2.72-15.21a2.13 2.13 0 01-.76-.76 2.11 2.11 0 010-2.1 2.13 2.13 0 01.76-.76 2.08 2.08 0 011.05-.29 2 2 0 011 .29 2.16 2.16 0 01.77.76 2.11 2.11 0 010 2.1 2.16 2.16 0 01-.77.76 2 2 0 01-1 .28 2.07 2.07 0 01-1.05-.28zM217.14 114.73h8.8v2.49h-12.41v-2.49l8.74-10h-8.74v-2.5h12.12v2.5zM243.24 111.05H233.1a4.46 4.46 0 001.79 2.85 6.21 6.21 0 003.65 1 18.67 18.67 0 003.68-.39l.37 2.63a23.81 23.81 0 01-4.39.4 9.45 9.45 0 01-4.35-.91 6.14 6.14 0 01-2.73-2.65 9 9 0 01-.93-4.26 10 10 0 01.79-4.18 5.86 5.86 0 012.31-2.66 7 7 0 013.66-.92 6 6 0 014.72 1.86 7.75 7.75 0 011.66 5.33 19.25 19.25 0 01-.09 1.9zm-2.63-2.29a4.53 4.53 0 00-1-3.1 3.37 3.37 0 00-2.67-1.1 3.63 3.63 0 00-2.77 1.1 5 5 0 00-1.22 3.1zM253.47 118.53a9.38 9.38 0 01-3.31-4.43 19.26 19.26 0 01-1.14-7 18.78 18.78 0 011.14-6.92 9.25 9.25 0 013.31-4.37 8.93 8.93 0 015.23-1.51h.68l-.28 2.55h-.1a6 6 0 00-3.8 1.21 7.31 7.31 0 00-2.38 3.5 16.5 16.5 0 00-.82 5.54 17 17 0 00.82 5.64 7.4 7.4 0 002.38 3.56 6 6 0 003.8 1.23h.11l.28 2.55h-.68a8.87 8.87 0 01-5.24-1.55zM265.5 117.51a6 6 0 003.8-1.23 7.47 7.47 0 002.38-3.56 17.31 17.31 0 00.82-5.64 16.76 16.76 0 00-.82-5.54A7.38 7.38 0 00269.3 98a6 6 0 00-3.8-1.21h-.11l-.29-2.55h.68a8.94 8.94 0 015.22 1.55 9.25 9.25 0 013.31 4.37 18.78 18.78 0 011.14 6.92 19.26 19.26 0 01-1.14 7 9.38 9.38 0 01-3.31 4.43 8.88 8.88 0 01-5.24 1.53h-.68l.29-2.55z"/></g></svg>